<svg xmlns="http://www.w3.org/2000/svg" width="257.924" height="48.845" viewBox="0 0 257.924 48.845">
  <g id="airlines-logo" transform="translate(-64.703 -57.158)">
    <path id="Path_23916" data-name="Path 23916" d="M379.458,135.607a.142.142,0,0,1-.028-.1,1.959,1.959,0,0,1,.245-.355c.169-.061.34-.128.512-.193,1.067-.4,2.181-.7,3.272-1.024,1.426-.42,2.863-.783,4.3-1.154a4.707,4.707,0,0,1,1.1-.224c.005.128-.175.311-.257.4-.107.029-.22.06-.332.084a54.337,54.337,0,0,0-8.1,2.3c-.238.092-.474.188-.711.268Zm5.761,5.373a1.174,1.174,0,0,0,1.474.175,5.834,5.834,0,0,0,.6-.322,4.247,4.247,0,0,0,1.22-.986,2.189,2.189,0,0,0,.2-.329c.032-.128.064-.256.1-.383a11.377,11.377,0,0,0,1.178-.346,10.653,10.653,0,0,1,1.655-.422c.387-.01.447,0,.7,0a1.178,1.178,0,0,0,.263-.553,11.478,11.478,0,0,1-1.269-.014,5.4,5.4,0,0,1-1.567-.241,1.145,1.145,0,0,0,.248-.328,2.93,2.93,0,0,0,.15-1.011,5.226,5.226,0,0,0-.038-.589c-.056-.591-.138-1.2-.214-1.782,0-.038,0-.076-.007-.114a4.677,4.677,0,0,1,.306.434c.038.064.092.037.076-.051a6.575,6.575,0,0,0-.375-1.11c-.036-.1-.106-.2-.142-.292-.006-.017-.083-.012-.092.006l-.242.478c.025.048.09.214.118.263.007.521.1,1.078.152,1.64.066.649.125,1.258.147,1.91-.086.14-.337.187-.568.206a2.551,2.551,0,0,0-1,.146,1.488,1.488,0,0,0-.124.446,17.045,17.045,0,0,1,2.037.349,1.442,1.442,0,0,0,.181.048,1.667,1.667,0,0,1-.261.094,5.554,5.554,0,0,1-1.4.348c-.263-.359-.5-.663-.962-.688a1.041,1.041,0,0,0-.281.248,1.177,1.177,0,0,0-.2.579.28.28,0,0,0,.105.259,1.387,1.387,0,0,0,1.1.147c.074.059.078.09.088.19-.041.04-.088.077-.13.119a4.11,4.11,0,0,1-.323.287,4.79,4.79,0,0,1-1.813,1c-.619.129-1.146-.086-1.178-.787a2.281,2.281,0,0,1,.33-1.139,2.6,2.6,0,0,0,1.109-.468,2.255,2.255,0,0,0,.2-.522,1.321,1.321,0,0,0-.1-.553,1.1,1.1,0,0,0-.181-.249.018.018,0,0,0-.025,0,.722.722,0,0,0-.152.543,1.225,1.225,0,0,1,.227.387.558.558,0,0,1-.273.17,6.943,6.943,0,0,1-1.745.377,6.215,6.215,0,0,1-1.647-.021,1.26,1.26,0,0,1-.892-.655c-.083-.236-.082-.492-.393-.488s-.6.323-.763.583c-.248.4-.279,1.005-.626,1.317a.517.517,0,0,1-.167.1c-.529.064-.634-.758-.682-1.123-.015-.114-.031-.239-.078-.549-.029-.19-.149-.014-.143.121a4.971,4.971,0,0,0,.1.8c.076.36.237,1.172.71,1.186a.513.513,0,0,0,.332-.139c.415-.342.383-.933.648-1.359.14-.225.406-.511.661-.422.1.037.154.156.2.326a.83.83,0,0,0,.37.507,2.2,2.2,0,0,0,.916.3,6.921,6.921,0,0,0,2.145-.125,3.393,3.393,0,0,0-.288,1.242,1.178,1.178,0,0,0,.3.817Zm19.218-7.224a2.143,2.143,0,0,0-.2-.224.183.183,0,0,1,.238-.069c.077.047.039.235-.039.294Zm-4.754.461c-.088-.069-.194-.161-.282-.23,0-.083.17-.1.238-.1.066.043.1.327.044.327Zm2.823,1.5a2.4,2.4,0,0,0,.5-.353c.355-.267.705-.539,1.057-.808a1.56,1.56,0,0,0,.391-.449.145.145,0,0,1,.049.118c.01.005,0,.047.025.031a.44.44,0,0,0,.1-.279.244.244,0,0,0-.053-.13c.075-.163.2-.472.067-.634a.39.39,0,0,0-.259.021.418.418,0,0,0-.043.777,2.041,2.041,0,0,1-.379.463c-.178.162-.36.321-.554.466a4.457,4.457,0,0,0-.93.767l.035.01Zm-5.7.753c.03.029.066,0,.11,0,.334-.138.724-.324,1.161-.508a4.166,4.166,0,0,0,1.43-1.227,1.045,1.045,0,0,1,.117-.145,1.474,1.474,0,0,1,.192.242c.131-.024.121-.207.128-.321-.06-.073-.142-.146-.142-.246.085-.252.188-.86-.284-.656a1.357,1.357,0,0,0-.224.2.208.208,0,0,0-.056.1c-.079.264.027.4.273.554.058.282-1.105,1.006-1.377,1.189-.555.346-1.095.671-1.269.782-.034.022-.055.036-.058.04Zm5.01,2.281c.345-.787,2.143-1.991,2.7-.847a6.455,6.455,0,0,1-2.7.847Zm-13.765.016a1.377,1.377,0,0,1-.49-.135c0-.065.05-.089.093-.131.227-.072.383.1.564.2v.048l-.167.021Zm11.73.043c0-.014.013-.033.01-.043.123-.133.215-.176.322-.151a.594.594,0,0,1,.36.268,1.533,1.533,0,0,1-.691-.074Zm-3.649.143a3.654,3.654,0,0,1,1.508-1.2,1.811,1.811,0,0,1,.692,0c.21.066.561.259.607.484a5.525,5.525,0,0,1-1.281.449c-.5.1-1.015.186-1.526.262Zm-14.543-2.81a3.945,3.945,0,0,1,.466.306.062.062,0,0,1,.017.085l-.2.294a.062.062,0,0,1-.087.016c-.138-.1-.281-.2-.437-.288l-.188.272a.062.062,0,0,1-.087.016,5.176,5.176,0,0,0-.466-.306.059.059,0,0,1-.017-.085l.2-.294a.065.065,0,0,1,.087-.016,3.878,3.878,0,0,1,.439.285l.186-.269a.065.065,0,0,1,.087-.016Zm.952,4.093a4.007,4.007,0,0,1,.466.306.062.062,0,0,1,.017.085l-.2.294a.063.063,0,0,1-.087.017,5.155,5.155,0,0,0-.436-.289l-.189.272a.062.062,0,0,1-.087.017,5.067,5.067,0,0,0-.466-.306.058.058,0,0,1-.017-.084l.2-.294a.066.066,0,0,1,.087-.016,4.08,4.08,0,0,1,.439.285l.186-.269a.066.066,0,0,1,.087-.016Zm22.691-5.417a4.019,4.019,0,0,1,.466.306.061.061,0,0,1,.017.084l-.2.294a.062.062,0,0,1-.086.016,4.962,4.962,0,0,0-.466-.306.059.059,0,0,1-.017-.085l.2-.294a.066.066,0,0,1,.087-.016ZM390.6,140.234a4.007,4.007,0,0,1,.466.306.06.06,0,0,1,.017.084l-.2.294a.063.063,0,0,1-.087.016,5.007,5.007,0,0,0-.466-.306.059.059,0,0,1-.016-.084l.2-.294a.066.066,0,0,1,.087-.016Zm.8-3.909c-.184,0-.223-.243-.221-.378a1.85,1.85,0,0,1,.406-.934c-.047.181-.187.374-.261.569-.058.152-.088.536.16.544a.211.211,0,0,0,.107-.026c.022-.05,0-.1-.014-.159l.085-.131a.409.409,0,0,1-.035.418.257.257,0,0,1-.228.1Zm8.9.866c-.184,0-.222-.243-.221-.379a1.848,1.848,0,0,1,.407-.933c-.047.18-.187.374-.261.568-.058.153-.088.536.16.544a.215.215,0,0,0,.107-.026c.023-.05,0-.1-.014-.159l.085-.131a.41.41,0,0,1-.035.418.256.256,0,0,1-.228.1Zm2.877,4.215c-.184,0-.223-.243-.221-.378a1.85,1.85,0,0,1,.406-.934c-.047.181-.187.374-.261.569-.058.152-.088.536.16.544a.21.21,0,0,0,.107-.026c.022-.05,0-.1-.014-.159l.085-.131a.408.408,0,0,1-.035.418.256.256,0,0,1-.228.1Zm5.34-5.6c-.185,0-.223-.243-.221-.379a1.851,1.851,0,0,1,.406-.934c-.047.181-.187.374-.261.569-.058.153-.088.536.16.544a.215.215,0,0,0,.107-.026c.023-.05,0-.1-.014-.159l.085-.131a.408.408,0,0,1-.035.418.256.256,0,0,1-.227.1Zm-1.655,4.41a3.115,3.115,0,0,1,.395-.368,1.853,1.853,0,0,0-.633.012.4.4,0,0,0-.082.046c.041-.092.086-.175.13-.256a.148.148,0,0,1,.082-.057,1.48,1.48,0,0,1,.726.038c.018.007.042.032.031.048l-.13.176a.212.212,0,0,1-.092.058,1.978,1.978,0,0,0-.356.356c-.087.107-.183.236-.23.306-.144.216.273.275.406.275a2.3,2.3,0,0,0,1.173-.536c.008-.006.02.028.014.035a1.829,1.829,0,0,1-1.371.77c-.175,0-.441-.093-.427-.313a1.289,1.289,0,0,1,.362-.59Zm-26.255-5.757a.306.306,0,0,0,.1-.14,5.858,5.858,0,0,1,.324-.848c.042-.059.176-.06.214-.055a.56.56,0,0,1,.163.091l.051-.194c.005-.027.015-.057-.021-.074a.328.328,0,0,0-.186-.059c-.471.059-.4.661-.594.929a3.92,3.92,0,0,0-.184-.469.866.866,0,0,0-.407-.431c-.032-.012-.047.042-.058.062a.393.393,0,0,0,.045.455c.075.076.18.019.257.024.009,0,.049.017.052.029l.24.681Zm3.789,2.023a.341.341,0,0,0,.355-.276.407.407,0,0,0,.3.2.283.283,0,0,0,.258-.364c-.051-.261-.158-.487-.211-.785l-.087.155a.543.543,0,0,0,.04.267,1.776,1.776,0,0,1,.133.472c0,.067-.133.05-.166.029-.294-.187-.2-.6-.289-.855l-.084.179c0,.26.151.451.038.663a.214.214,0,0,1-.273.109c-.222-.144-.115-.627-.239-.816l-.081.165a2.308,2.308,0,0,1,.094.552c.012.155.066.3.209.309Zm3.386-.561a.307.307,0,0,0,.1-.14,5.908,5.908,0,0,1,.324-.848c.042-.059.176-.06.214-.055a.556.556,0,0,1,.163.09l.05-.194c.006-.027.015-.058-.02-.075a.338.338,0,0,0-.186-.059c-.471.059-.4.661-.594.929a3.83,3.83,0,0,0-.184-.469.864.864,0,0,0-.407-.432c-.032-.012-.047.042-.058.062a.394.394,0,0,0,.045.456c.075.076.18.019.257.023.01,0,.049.017.053.029l.24.682Zm5.576-1.517c.016.088-.038.115-.076.052a4.687,4.687,0,0,0-.306-.435c0,.038,0,.077.008.114.093.721.2,1.477.248,2.195.049.694.08,1.3.1,1.992.005.226-.018.811-.221.973l-.036-.05c.006-.268-.019-.41-.024-.614-.007-.325-.044-.65-.073-.974-.061-.716-.119-1.5-.2-2.268-.057-.563-.146-1.119-.153-1.641-.027-.048-.092-.214-.117-.263l.242-.478c.009-.017.085-.023.092-.006.036.1.106.194.142.292a6.682,6.682,0,0,1,.375,1.11Zm8.4-.655c.013.935.19,1.856.269,2.786.018.435.031.959.052,1.4-.021.117-.052.106-.105.217a4.754,4.754,0,0,0-.495.653c-.164.011-.363.039-.51.057a1.248,1.248,0,0,0-.745-.722.21.21,0,0,0-.167,0,.969.969,0,0,0-.539.905c.082.246.341.3.575.328a4.15,4.15,0,0,1,.66,0,.355.355,0,0,1,.057.2c-.026.029-.079.093-.135.151a4.374,4.374,0,0,1-2.463,1.293.794.794,0,0,1-.868-1,3.206,3.206,0,0,1,.237-.873c.186-.044.382-.11.574-.173.49-.161.964-.4,1.069-.946a.52.52,0,0,0,.01-.1,1.047,1.047,0,0,0-.687-.6,1.354,1.354,0,0,0-1.135.157,4.055,4.055,0,0,0-.963.77c0-.024,0-.024.032-.1a5.3,5.3,0,0,0,.163-1.026,20.661,20.661,0,0,0-.191-2.327c-.029-.225-.058-.449-.087-.67-.005-.038,0-.076-.008-.114a4.793,4.793,0,0,1,.306.435c.038.064.092.037.076-.052a6.68,6.68,0,0,0-.375-1.11c-.036-.1-.106-.2-.142-.292-.007-.017-.083-.012-.092.006l-.242.478c.025.048.09.215.117.263,0,.367.037.748.08,1.138.057.522.119,1.048.158,1.58.016.218.048.594.094,1.262a3.027,3.027,0,0,0,.007.646c-.174.187-.3.409-.483.584a3.232,3.232,0,0,1-1.42-.253.292.292,0,0,0,.076.189,1.894,1.894,0,0,0,.655.5,2.776,2.776,0,0,0,.476.047,7.1,7.1,0,0,0,1.7-.236,3.853,3.853,0,0,0-.231,1.008c-.043.665.22,1.233.969,1.279a4.1,4.1,0,0,0,2.713-1.5c.085-.224.17-.446.234-.677.5-.059.99-.152,1.483-.232a8.735,8.735,0,0,0,1.589-.109,12.87,12.87,0,0,0,2.184-.552,12.767,12.767,0,0,1,2-.587,4.5,4.5,0,0,1,.989-.044c.053.014.11.031.167.048.1-.076.315-.453.241-.559-.064-.007-.153.007-.632.007-.1-.014-.273-.014-.45-.034-.022-.014-.649-.083-1.288-.173-.043-.008-.555-.1-.555-.1a.807.807,0,0,0,.289-.456,4.284,4.284,0,0,0,.04-.952,3.661,3.661,0,0,0-.023-.4c-.041-.347-.088-.693-.132-1.032,0-.038,0-.076-.007-.114a4.793,4.793,0,0,1,.306.435c.038.064.091.037.076-.052a6.686,6.686,0,0,0-.375-1.11c-.036-.1-.106-.2-.142-.292-.006-.017-.083-.012-.092.006l-.242.478c.025.048.09.215.118.263.01.747.132,1.558.227,2.361.007.079.014.158.02.238a.359.359,0,0,1-.014.187c-.017.033-.071.031-.106.048a8.73,8.73,0,0,0-1.338.173.709.709,0,0,0-.192.494c.06,0,.085-.011.263-.011.682.111,1.374.221,2.048.37-.412.12-.821.247-1.233.37a13.5,13.5,0,0,1-2.006.5,1.112,1.112,0,0,0,.358-.369,3.246,3.246,0,0,0,.163-.435c0-.609-.605-.718-1.114-.7-.652.019-.937.45-1.34.8a3.81,3.81,0,0,1,.055-.633,14.773,14.773,0,0,0-.115-1.951h0c-.043-.355-.09-.709-.135-1.056,0-.038,0-.076-.008-.114a4.59,4.59,0,0,1,.306.435c.038.064.092.037.076-.052a6.635,6.635,0,0,0-.375-1.11c-.036-.1-.106-.2-.142-.292-.007-.017-.083-.012-.092.006l-.242.478c.025.048.09.215.117.263Zm8.729.655c.016.088-.038.115-.076.052a4.681,4.681,0,0,0-.306-.435c0,.038,0,.077.007.114.094.721.2,1.477.248,2.195.049.694.08,1.3.1,1.992.005.226-.018.811-.221.973l-.036-.05c.006-.268-.019-.41-.024-.614-.007-.325-.044-.65-.073-.974-.061-.716-.119-1.5-.2-2.268-.057-.563-.146-1.119-.153-1.641-.027-.048-.092-.214-.117-.263l.242-.478c.008-.017.085-.023.092-.006.036.1.106.194.142.292A6.635,6.635,0,0,1,410.487,134.4Z" transform="translate(-147.999 -35.491)" fill="#6f2f39" fill-rule="evenodd"/>
    <path id="Path_23917" data-name="Path 23917" d="M441.412,79.831a1.39,1.39,0,0,0,.153-1.123,4.377,4.377,0,0,0-1.152-.524c-.957-.079-1.944,2.09-2.287,3.314-.166.592-.2,1.08-.381,1.153-.049.02-.049.008-.061-.034a7.174,7.174,0,0,0-3.4-4.06c-.274-.082-.628.427-.685,1.746.145.666.734.761.979,1.274a.291.291,0,0,0,.5-.128c.078-.2.1-.494.157-.683a6.131,6.131,0,0,1,2.145,3.789.218.218,0,0,0,.339.016c.834-1.595.791-4.353,2.176-5.078a1.662,1.662,0,0,1,1.088.374c0,.052-.014.123-.006.16.053.222.221.124.441-.2ZM426.966,94.749a9,9,0,0,0-1.254,1.726c-.206.381-.191.336.147.6l2.011,1.672c.365.288.313.286.638-.055a7.963,7.963,0,0,0,1.246-1.632c.187-.355.146-.338-.14-.613a22.047,22.047,0,0,0-2.151-1.782c-.291-.215-.254-.187-.5.082ZM413.354,94.1a9.14,9.14,0,0,0-1.156,1.742c-.206.4-.191.355.147.587l2.115,1.426c.365.25.313.253.638-.12a8.357,8.357,0,0,0,1.117-1.76c.188-.374.169-.375-.159-.567-.756-.442-1.445-.956-2.2-1.441-.29-.185-.254-.161-.5.133Zm-4.393.825c.092-.155.26-.42.377-.613.153-.253.27-.4.541-.23.76.485,1.449,1,2.2,1.441.329.192.347.193.16.567a8.381,8.381,0,0,1-1.117,1.76c-.324.373-.272.371-.637.12l-2.026-1.391c-.338-.231-.354-.185-.148-.587.2-.383.461-.754.646-1.068Zm36.932-.073A9.032,9.032,0,0,0,444.6,96.6c-.233.406-.215.359.134.632l2.188,1.69c.378.3.322.294.68-.072a8.333,8.333,0,0,0,1.249-1.764c.212-.379.193-.382-.148-.613-.784-.532-1.5-1.135-2.282-1.713-.3-.221-.263-.192-.531.1Zm-4.5.706c.1-.148.275-.4.4-.581.162-.24.285-.38.549-.185.743.546,1.414,1.114,2.154,1.616.322.219.34.221.14.579a7.839,7.839,0,0,1-1.179,1.665c-.337.346-.285.347-.642.068l-1.977-1.551c-.33-.259-.347-.214-.127-.6.21-.366.487-.715.683-1.012Zm1.078-23.382,1.14-2.305c.337-.683,1.487-.425,2.139-.41,1.171.026,2.4.051,3.26.071a.539.539,0,0,0,.137-.039c.178-.035.275.026.309.162a11.244,11.244,0,0,1-3.4,4.505,20.053,20.053,0,0,1-4.168.691c1.534-.994,3.272-1.8,4.692-2.694l-3.072-.139a1.65,1.65,0,0,0-.419-.008c-.1.032-.16.114-.26.243-.078.1-.177.263-.326.144-.051-.041-.058-.116-.031-.221Zm-47.864.994a9.1,9.1,0,0,0-1.241,1.694c-.224.393-.207.347.129.593l2.1,1.515c.363.266.31.266.654-.094a8.316,8.316,0,0,0,1.2-1.714c.2-.366.186-.368-.142-.574-.753-.473-1.436-1.016-2.191-1.533-.289-.2-.253-.172-.511.113Zm-4.694.844c.094-.156.265-.421.384-.614.156-.253.276-.4.552-.218.774.518,1.477,1.062,2.247,1.535.336.206.354.208.163.584a8.189,8.189,0,0,1-1.139,1.76c-.33.371-.277.369-.649.1L389.4,75.69c-.345-.247-.36-.2-.15-.6.2-.384.47-.755.658-1.069Zm63.707-13.107c.3-.419.422-.432-.142-.376C434.881,62.38,416.8,64.73,399.008,68.83c-.193.044-.189.047-.275.221l-.554,1.129c-.027.1-.061.167-.078.24-.064.276-.045.347.248.3.209-.032.53-.207.77-.264,17.8-4.19,35.536-6.344,53.267-8.353.445-.05.439-.077.695-.437l.537-.758ZM397.524,94.192c-.028-.25-.14-.214-.3-.032-.322.413-.447,1.019-.791,1.412-.492.561-.769.289-1.006-.287-.58-1.4.887-2.9,1.15-4.414-.034-.377-.187-.308-.395-.036a14,14,0,0,0-1.067,2.408,4.876,4.876,0,0,0-.346,2.658c.285,1.148.9,1.757,1.744.715a5.032,5.032,0,0,0,.536-.936,3.6,3.6,0,0,0,.469-1.487Zm9.654-14.027c-.03-.264-.148-.225-.312-.034-.34.437-.472,1.077-.835,1.491-.519.592-.811.305-1.063-.3-.612-1.484.936-3.058,1.215-4.662-.035-.4-.2-.325-.417-.038a14.748,14.748,0,0,0-1.127,2.544,5.153,5.153,0,0,0-.365,2.807c.3,1.212.954,1.855,1.842.755a5.319,5.319,0,0,0,.566-.989,3.817,3.817,0,0,0,.495-1.571ZM435.459,72a3.815,3.815,0,0,1-.495,1.571,5.354,5.354,0,0,1-.566.989c-.888,1.1-1.541.457-1.842-.755A5.153,5.153,0,0,1,432.92,71a14.8,14.8,0,0,1,1.126-2.544c.22-.287.382-.36.417.038-.278,1.6-1.827,3.179-1.215,4.662.251.608.544.9,1.063.3.363-.414.494-1.054.835-1.491.164-.191.283-.23.312.034Zm25.212,21.712a2.022,2.022,0,0,1-.406.685.834.834,0,0,1-.477.25q-3.6,1.122-7.13,2.452a3.031,3.031,0,0,0-.416.157,2.13,2.13,0,0,1-.249.157c-.114.045-.172-.007-.163-.177a1.174,1.174,0,0,1,.163-.476l.141-.287c.107-.219.12-.229.354-.314,2.638-.969,5.276-1.841,7.914-2.642.215-.064.341-.035.269.2ZM416.892,71.814c-1.256,1.286.374,2.4.56,3.594-.246.38-.876.321-1.254.209a1.234,1.234,0,0,1-.851-.892c-.267-.854-.121-2.109-.447-2.816-.013-.028-.027-.057-.042-.084a.1.1,0,0,0-.119-.058c-.144.068-.272.622-.4,1.03-.048.146-.072.156,0,.29l.089.159a2.693,2.693,0,0,1,0,2.127c-.636,1.088-1.862,1.158-2.209.213-.053-1.051.182-1.932.1-2.952a.261.261,0,0,0-.149-.231c-.091-.037-.129,0-.178.076a3.679,3.679,0,0,0-.332.991c.13.66-.116,1.751-.013,2.627.15.881.6,1.377,1.18,1.438a2.007,2.007,0,0,0,1.848-1.284,4.39,4.39,0,0,1,.227-.383.076.076,0,0,1,.107-.012,1.555,1.555,0,0,0,2.45.782,2.838,2.838,0,0,0,.44-1.995c-.137-1.046-.884-1.786-1-2.829ZM422.819,60.6a3.244,3.244,0,0,1-.494,1.43,4.776,4.776,0,0,1-.566.9c-.888,1-1.541.416-1.842-.688a4.3,4.3,0,0,1,.365-2.555,12.889,12.889,0,0,1,1.126-2.315c.22-.261.382-.328.417.034-.278,1.46-1.827,2.894-1.215,4.243.251.554.544.815,1.063.276.363-.377.494-.96.835-1.357.164-.174.283-.209.312.031Zm-13.4.243c-.2.353-.372.468-.445.24-.012-.037,0-.113-.007-.167a1.746,1.746,0,0,0-1.168-.306c-1.388.865-1.117,3.746-1.858,5.478a.229.229,0,0,1-.355.01,6.463,6.463,0,0,0-2.554-3.795c-.046.2-.042.514-.107.726a.3.3,0,0,1-.509.173c-.3-.517-.922-.57-1.129-1.255-.048-1.384.279-1.943.573-1.878a7.566,7.566,0,0,1,3.892,3.978c.016.043.017.056.067.031.181-.091.178-.6.3-1.235.258-1.308,1.111-3.652,2.118-3.644a4.612,4.612,0,0,1,1.248.458,1.455,1.455,0,0,1-.068,1.186Zm59.417,1.6c.654,2.048,2.47,5.359,2.632,6.829.09.823-.2.678-.6.259l-.584-.681c-.265-.252-.4-.415-.419.121-.023.877.128,1.876.188,2.757.246,3.59.832,8.741.794,12.6-.06,3.077-.691,5.044-1.641,6.389.1-8.542-.8-16.619-1.444-24.732l-.239-.529,1.315-3.01Zm-40.379,22h0c2.318,4.178,10.866,3.2,19.541-.471l0-.013q.617-.269.684.188c-.3.725-.546,1.331-.033,2.046a2.047,2.047,0,0,0,1.633.761,4.359,4.359,0,0,0,1.766-.357,7.071,7.071,0,0,0,1.651-.963,1.874,1.874,0,0,0,.814-1.973c-.164-5.941-.747-11.715-1.113-17.642l1.224-2.59c.091-.185.4-.773.461-.466a74.369,74.369,0,0,1,.65,8.112c.309,3.968.581,8.015.837,11.614l.076.49a6.337,6.337,0,0,0,.8,2.874c1.178,1.7,3.392,1.61,5.279-.143.493-.458.27-.829.2-1.468-.622-6.009-1.2-12.047-1.666-18.171a1.561,1.561,0,0,0-.364-.853l1.2-2.471c.84,1.449,2.628,4.986,2.79,6.457.091.823-.2.678-.6.259l-.594-.549c-.149-.142-.258-.256-.328-.233-.259.086.127,2.53.157,2.983.227,3.309,1.007,7.89.816,11.5q-.025.459-.07.9c-.463,2.959-1.618,4.209-2.071,4.384-3.653,2.635-6.379.741-6.962-3.924a6.5,6.5,0,0,1-.951,2.522c-2.288,3.337-7.07,3.425-6.861-.675l-.489-.086c-7.705,4.133-19.062,5.334-20.121-1.466l-.075.026c-1.081,5.278-7.942,6.461-7.881,1.081l.005-.015c-7.63,3.546-19.431,6.312-22.565-3.119-.2-.592-.141-1.091-.948-1.008-1.042.108-2.553,1.377-3.908,3.33a1.1,1.1,0,0,0-.073.146c-1.045,2.138-1.534,5.418-3.393,7.112a2.45,2.45,0,0,1-3.521-.013c-1.955-1.75-2.585-6.605-1.908-10.871-3.585-3.562-.521-9.541,2.969-15.621q.245-.429.493-.857c.209-.361.673-.733.482.071a5.261,5.261,0,0,1-.323.873,18.046,18.046,0,0,1-1.606,3.24,18.65,18.65,0,0,0-2.371,5.732c-.132.882-.065,3.82,1.348,3.893a1.015,1.015,0,0,0,.826-.553,5.1,5.1,0,0,0,.624-1.424c.1-.358.309-1.249.724-1.314.171-.027.227.323.16.863-.172,1.388-1.173,4.531-2.639,5.372-.151,1.24-.6,7.132,1.318,8.742,1.226,1.027,2.872,0,3.644-1.044,2.055-2.776,2.463-8.645,7.2-10.191a1.458,1.458,0,0,1,1.755.243c.532,2.97,2.1,5.229,4.595,6.205,5.482,2.148,14.254-.177,17.977-2.535a.112.112,0,0,1,.125-.053q.374.014-.027,1.006c.031,3.014,3.412,3.422,5.848,1.1l.07-.068c.166-.164.127-.521.124-.733-.035-3.161-.731-4.464-1-6.151a23.371,23.371,0,0,1,1.33-3.052C427.6,77.531,427.278,82.317,428.452,84.454Z" transform="translate(-148.853 0)" fill="#6f2f39" fill-rule="evenodd"/>
    <path id="Path_23918" data-name="Path 23918" d="M65.585,100.156V99.5a8.559,8.559,0,0,0,1.351-.772q.173-3.422.169-7.139,0-2.918-.062-5.508a8.475,8.475,0,0,0-.182-2.122.434.434,0,0,0-.27-.246,13.058,13.058,0,0,0-1.887-.224V82.424q2.506.064,4.648.065c1.387,0,2.694-.022,3.935-.065v1.061a6.372,6.372,0,0,0-2.065.306.688.688,0,0,0-.239.457q-.073.349-.111,4.089l-.08,6.155c0,1.156.031,2.489.093,4.007,1.134.056,1.972.086,2.517.086a19.618,19.618,0,0,0,4.13-.367c.227-.763.444-1.678.661-2.739h1.143c-.191,1.2-.359,2.7-.5,4.486a16.366,16.366,0,0,1-2.273.176l-4.7-.051-2.1-.026C68.784,100.057,67.4,100.087,65.585,100.156Z" transform="translate(0 -11.893)" fill="#6f2f39"/>
    <path id="Path_23919" data-name="Path 23919" d="M95.486,100.156V99.09a5.43,5.43,0,0,0,2.025-.289,1.516,1.516,0,0,0,.284-1q.093-1.67.093-6.22,0-1.74-.053-5.055a18.682,18.682,0,0,0-.1-2.48.548.548,0,0,0-.275-.323,8.31,8.31,0,0,0-1.972-.242V82.424q2.672.1,4.09.1,2.439,0,4.413-.1v1.061a6.421,6.421,0,0,0-1.994.272,1.159,1.159,0,0,0-.293.789q-.113,1.216-.115,4.917,0,4.93.04,6.867a7.787,7.787,0,0,0,.23,2.307.577.577,0,0,0,.332.259,10.236,10.236,0,0,0,1.8.194v1.065l-1.533-.039q-1.455-.052-2.6-.052Z" transform="translate(-14.49 -11.893)" fill="#6f2f39"/>
    <path id="Path_23920" data-name="Path 23920" d="M116.074,100.121v-.6a6.815,6.815,0,0,0,1.13-.785q.16-1.74.155-7.708,0-4.322-.129-6.117c-.044-.647-.133-1.027-.275-1.139a4.458,4.458,0,0,0-1.972-.328V82.389l2.5.051,1.905.039q.87,0,2.57-.065,1.649-.064,2.366-.065a6.947,6.947,0,0,1,4.125.945,3.038,3.038,0,0,1,1.245,2.571,3.45,3.45,0,0,1-1.232,2.743,7.529,7.529,0,0,1-3.479,1.514v.1a10.377,10.377,0,0,1,3.244.681,3.507,3.507,0,0,1,1.507,1.415,4.183,4.183,0,0,1,.572,2.187,4.881,4.881,0,0,1-.939,2.842,6.075,6.075,0,0,1-2.495,2.049,10.834,10.834,0,0,1-4.369.707q-.558,0-1.675-.039c-.691-.026-1.258-.039-1.7-.039-.5,0-1.511.03-3.053.091ZM121.046,89.7h.678a4.739,4.739,0,0,0,3.08-.772,3.031,3.031,0,0,0,.89-2.416,2.8,2.8,0,0,0-.722-2.122,3.381,3.381,0,0,0-2.366-.682,14,14,0,0,0-1.493.1q-.08,3.882-.08,4.753l.013,1.139Zm.026,8.985a5.866,5.866,0,0,0,1.414.186,3.732,3.732,0,0,0,2.831-1.027,4.2,4.2,0,0,0,.988-3.028,4.481,4.481,0,0,0-.447-2.13,2.869,2.869,0,0,0-1.236-1.23,4.953,4.953,0,0,0-2.238-.405l-1.312.013v.328l-.026,3.274.026,3.309Z" transform="translate(-23.667 -11.858)" fill="#6f2f39"/>
    <path id="Path_23921" data-name="Path 23921" d="M152,99.922V98.856a5.212,5.212,0,0,0,1.857-.224.756.756,0,0,0,.4-.582c.017-.086.053-.906.115-2.463l.013-.923a7.887,7.887,0,0,0-.168-2.135,29.15,29.15,0,0,0-2-3.356q-1.716-2.646-2.624-3.779a6.11,6.11,0,0,0-1.533-1.484,1.116,1.116,0,0,0-.572-.129l-.62.026v-1q2.153-.368,4.258-.884a4.141,4.141,0,0,1,1.139.742,15.089,15.089,0,0,1,1.839,2.523q1.177,1.877,2.978,5.414l1.068-1.768q1.449-2.4,3.829-6.66H164.1v.634q-.684.8-2.556,3.636-2.931,4.477-3.271,5.245a5.979,5.979,0,0,0-.209,1.958c0,1.98.044,3.377.129,4.184.044.431.16.7.346.811a6.847,6.847,0,0,0,2.034.211v1.065q-1.9-.091-3.86-.091Q154.557,99.831,152,99.922Z" transform="translate(-38.678 -11.658)" fill="#6f2f39"/>
    <path id="Path_23922" data-name="Path 23922" d="M181.825,98.881a4.057,4.057,0,0,0,1.5-.241,2.949,2.949,0,0,0,.612-.957q.791-1.643,2.025-4.564l4.595-10.956h1.91l5.867,13.57a16.943,16.943,0,0,0,1.409,2.894,3.317,3.317,0,0,0,1.644.341v1.065q-2.121-.091-4-.091-2.247,0-4.271.091V98.968A8.319,8.319,0,0,0,194.9,98.8a.392.392,0,0,0,.239-.388,8.532,8.532,0,0,0-.545-1.639l-.855-2.161c-1.072-.017-2.273-.026-3.593-.026-1.152,0-2.2.008-3.142.026l-.572,1.453a18.006,18.006,0,0,0-.572,1.768,1.688,1.688,0,0,0-.08.478.417.417,0,0,0,.252.41,8.528,8.528,0,0,0,1.826.246v1.065q-1.277-.091-3.168-.091-1.8,0-2.867.091V98.881Zm8.513-12.246L187.6,93.119c.8.043,1.675.065,2.636.065,1.006,0,1.963-.022,2.88-.065Z" transform="translate(-55.13 -11.77)" fill="#6f2f39"/>
    <path id="Path_23923" data-name="Path 23923" d="M221.014,100.156V99.09a7.089,7.089,0,0,0,1.857-.2.62.62,0,0,0,.275-.332,8.843,8.843,0,0,0,.182-2.135q.073-3.034.075-4.572l-.026-5.349a10.526,10.526,0,0,0-.142-2.45.526.526,0,0,0-.243-.276,7.789,7.789,0,0,0-1.976-.293V82.424c1.369.043,2.379.065,3.04.065.727,0,1.551-.022,2.477-.065q2.991,3.713,6.753,8.061,2.506,2.912,4.321,4.805V90.282c0-1.893-.022-3.528-.075-4.9a4.591,4.591,0,0,0-.209-1.505.456.456,0,0,0-.288-.216,16.991,16.991,0,0,0-1.817-.177V82.424q1.416.064,2.818.065,1.921,0,3.479-.065v1.061a9.156,9.156,0,0,0-1.75.2.734.734,0,0,0-.275.177.775.775,0,0,0-.155.294,11.147,11.147,0,0,0-.1,1.945l-.04,5.055-.026,5.09q0,2.051.088,4.093l-.168.177q-1.569-.279-2.22-.363-3.337-3.6-8.061-9.049-2.386-2.757-3.855-4.637v4.913q0,2.012.067,4.839a10.232,10.232,0,0,0,.182,2.4.385.385,0,0,0,.195.215,7.38,7.38,0,0,0,1.866.25v1.065c-1.4-.06-2.406-.091-3.009-.091Q223.491,100.065,221.014,100.156Z" transform="translate(-73.576 -11.893)" fill="#6f2f39"/>
    <path id="Path_23924" data-name="Path 23924" d="M167.068,135.019a1.526,1.526,0,0,0,.567-.091,1.112,1.112,0,0,0,.231-.362q.3-.621.765-1.723l1.734-4.136h.721l2.215,5.123a6.337,6.337,0,0,0,.532,1.093,1.252,1.252,0,0,0,.621.129v.4q-.8-.034-1.511-.034-.848,0-1.612.034v-.4a3.166,3.166,0,0,0,.674-.064.149.149,0,0,0,.091-.147,3.181,3.181,0,0,0-.206-.619l-.323-.816c-.4-.006-.858-.01-1.357-.01-.435,0-.832,0-1.186.01l-.215.549a6.838,6.838,0,0,0-.216.668.629.629,0,0,0-.03.18.158.158,0,0,0,.1.155,3.248,3.248,0,0,0,.689.093v.4q-.481-.034-1.2-.034c-.454,0-.815.012-1.082.034v-.435Zm3.213-4.623-1.034,2.447q.452.025,1,.024c.38,0,.741-.008,1.088-.024Z" transform="translate(-48.184 -33.679)" fill="#6f2f39"/>
    <path id="Path_23925" data-name="Path 23925" d="M181.9,135.5v-.4a2.061,2.061,0,0,0,.765-.109.577.577,0,0,0,.107-.376q.035-.63.035-2.348,0-.657-.02-1.909a7.05,7.05,0,0,0-.038-.936.212.212,0,0,0-.1-.122,3.133,3.133,0,0,0-.745-.091v-.4q1.009.039,1.544.039.921,0,1.666-.039v.4a2.414,2.414,0,0,0-.753.1.436.436,0,0,0-.111.3q-.042.459-.043,1.856,0,1.861.015,2.592a2.943,2.943,0,0,0,.087.871.217.217,0,0,0,.125.1,3.874,3.874,0,0,0,.679.074v.4l-.579-.015c-.367-.013-.693-.02-.98-.02Z" transform="translate(-55.165 -33.725)" fill="#6f2f39"/>
    <path id="Path_23926" data-name="Path 23926" d="M189.28,135.5v-.4a3.08,3.08,0,0,0,.653-.09.169.169,0,0,0,.077-.091,3.325,3.325,0,0,0,.069-.773q.025-1.021.025-1.607,0-.791-.02-2.012a5.024,5.024,0,0,0-.092-1.117.164.164,0,0,0-.078-.094,2.573,2.573,0,0,0-.633-.106v-.4q1.014.039,1.308.039l2.456-.044a3.274,3.274,0,0,1,1.164.151,1.229,1.229,0,0,1,.577.481,1.411,1.411,0,0,1,.214.78,1.571,1.571,0,0,1-.341,1,2.769,2.769,0,0,1-1.182.765l1.044,1.532.813,1.172a1.46,1.46,0,0,0,.343.347.9.9,0,0,0,.368.064v.368l-.29,0q-1.244.01-1.6.03-.426-.665-1.275-1.923l-1.009-1.493a1.121,1.121,0,0,0,.074-.173,2.572,2.572,0,0,0,.29.024,1.414,1.414,0,0,0,.9-.358,1.235,1.235,0,0,0,.44-1.021,1.151,1.151,0,0,0-.348-.9,1.492,1.492,0,0,0-1.044-.321q-.221,0-.6.034l-.035,1.407-.043,1.785q0,.606.049,1.55a4.628,4.628,0,0,0,.078.8.219.219,0,0,0,.109.1,2.333,2.333,0,0,0,.666.085v.4c-.587-.023-1.109-.034-1.562-.034Q190.114,135.462,189.28,135.5Z" transform="translate(-58.639 -33.721)" fill="#6f2f39"/>
    <path id="Path_23927" data-name="Path 23927" d="M203.27,135.5v-.249a3.255,3.255,0,0,0,.51-.292q.065-1.292.064-2.695,0-1.1-.024-2.08a3.226,3.226,0,0,0-.068-.8.164.164,0,0,0-.1-.093,4.945,4.945,0,0,0-.712-.085v-.4q.946.025,1.755.024c.523,0,1.017-.008,1.485-.024v.4a2.4,2.4,0,0,0-.779.115.261.261,0,0,0-.091.173q-.028.133-.042,1.544l-.03,2.324c0,.437.012.939.035,1.513.428.021.744.033.95.033a7.382,7.382,0,0,0,1.559-.139c.085-.288.167-.633.249-1.034h.432c-.072.454-.135,1.017-.191,1.693a6.188,6.188,0,0,1-.859.067l-1.775-.02-.793-.01Q204.295,135.461,203.27,135.5Z" transform="translate(-65.067 -33.725)" fill="#6f2f39"/>
    <path id="Path_23928" data-name="Path 23928" d="M214.558,135.5v-.4a2.055,2.055,0,0,0,.764-.109.573.573,0,0,0,.107-.376q.035-.63.035-2.348,0-.657-.02-1.909a7.1,7.1,0,0,0-.039-.936.209.209,0,0,0-.1-.122,3.133,3.133,0,0,0-.745-.091v-.4q1.009.039,1.544.039.921,0,1.666-.039v.4a2.414,2.414,0,0,0-.753.1.436.436,0,0,0-.111.3q-.042.459-.043,1.856,0,1.861.015,2.592a2.942,2.942,0,0,0,.087.871.217.217,0,0,0,.125.1,3.874,3.874,0,0,0,.679.074v.4l-.579-.015c-.366-.013-.692-.02-.98-.02Z" transform="translate(-70.537 -33.725)" fill="#6f2f39"/>
    <path id="Path_23929" data-name="Path 23929" d="M221.9,135.5v-.4a2.671,2.671,0,0,0,.7-.075.232.232,0,0,0,.1-.125,3.334,3.334,0,0,0,.069-.806q.028-1.145.028-1.726l-.01-2.019a3.947,3.947,0,0,0-.054-.925.2.2,0,0,0-.092-.1,2.929,2.929,0,0,0-.746-.111v-.4c.517.016.9.024,1.148.024.274,0,.585-.008.935-.024q1.129,1.4,2.549,3.043.946,1.1,1.631,1.814v-1.89c0-.715-.008-1.332-.029-1.85a1.726,1.726,0,0,0-.079-.568.171.171,0,0,0-.109-.082,6.284,6.284,0,0,0-.686-.067v-.4q.535.025,1.064.024.726,0,1.314-.024v.4a3.4,3.4,0,0,0-.661.077.269.269,0,0,0-.1.067.293.293,0,0,0-.058.111,4.147,4.147,0,0,0-.039.734l-.015,1.909-.01,1.921q0,.774.033,1.546l-.063.067q-.592-.1-.838-.137-1.26-1.361-3.043-3.417-.9-1.04-1.456-1.75v1.855q0,.76.025,1.827a3.867,3.867,0,0,0,.068.907.146.146,0,0,0,.074.082,2.768,2.768,0,0,0,.7.095v.4c-.529-.023-.908-.034-1.136-.034Q222.835,135.466,221.9,135.5Z" transform="translate(-73.993 -33.725)" fill="#6f2f39"/>
    <path id="Path_23930" data-name="Path 23930" d="M238.087,135.5v-.259a2.569,2.569,0,0,0,.475-.267,30.128,30.128,0,0,0,.1-3.13q0-1.627-.033-2.156a.531.531,0,0,0-.1-.355,2.1,2.1,0,0,0-.729-.127v-.4c.771.03,1.382.044,1.829.044l2.7-.029c.284,0,.542.011.77.032l.035.054a9.929,9.929,0,0,0-.157,1.383h-.386a4.033,4.033,0,0,0-.057-.744.426.426,0,0,0-.223-.089,6.433,6.433,0,0,0-1.244-.086q-.412,0-.962.032-.063,1.475-.074,2.348c.35.021.68.033.986.033a4.344,4.344,0,0,0,.82-.042.2.2,0,0,0,.117-.139,4.08,4.08,0,0,0,.068-.6h.422c-.017.537-.025.888-.025,1.049l.025,1.074h-.422a2.748,2.748,0,0,0-.088-.721.191.191,0,0,0-.132-.082,7.089,7.089,0,0,0-1.1-.052c-.18,0-.39.01-.632.029-.007.168-.01.34-.01.514q0,1.366.048,2.1l.97.015a12.382,12.382,0,0,0,1.516-.086c.082-.292.159-.626.234-1h.409a14.912,14.912,0,0,0-.134,1.612,7.91,7.91,0,0,1-.857.047c-.18,0-.535,0-1.064-.018q-.74-.02-1.361-.02C239.266,135.466,238.692,135.478,238.087,135.5Z" transform="translate(-81.476 -33.725)" fill="#6f2f39"/>
    <path id="Path_23931" data-name="Path 23931" d="M249.831,133.4h.431a4.263,4.263,0,0,0,.047.829.881.881,0,0,0,.281.319,1.9,1.9,0,0,0,.622.322,2.564,2.564,0,0,0,.785.124,1.634,1.634,0,0,0,1.106-.358,1.129,1.129,0,0,0,.413-.892,1,1,0,0,0-.274-.754,2.006,2.006,0,0,0-1.059-.372,6.333,6.333,0,0,1-1.561-.354,1.451,1.451,0,0,1-.637-.573,1.718,1.718,0,0,1-.233-.915,2.025,2.025,0,0,1,.649-1.52,2.927,2.927,0,0,1,2.076-.624,5.436,5.436,0,0,1,.992.082,4.174,4.174,0,0,1,.87.267l.05.116a4.055,4.055,0,0,0-.11.544c-.022.161-.04.441-.057.839h-.427a3.533,3.533,0,0,0-.074-.826,1.075,1.075,0,0,0-.473-.331,2.071,2.071,0,0,0-.87-.174,1.549,1.549,0,0,0-1.041.318,1.025,1.025,0,0,0-.369.817.946.946,0,0,0,.15.533.888.888,0,0,0,.425.333,6.855,6.855,0,0,0,1.169.246,5.769,5.769,0,0,1,1.1.233,1.456,1.456,0,0,1,.719.568,1.743,1.743,0,0,1,.246.964,2.107,2.107,0,0,1-.794,1.681,3.256,3.256,0,0,1-2.172.671,5.006,5.006,0,0,1-1.112-.114,4.755,4.755,0,0,1-1.034-.378,4.165,4.165,0,0,0,.119-.606C249.812,134.166,249.827,133.827,249.831,133.4Z" transform="translate(-87.064 -33.644)" fill="#6f2f39"/>
    <ellipse id="Ellipse_339" data-name="Ellipse 339" cx="23.002" cy="22.391" rx="23.002" ry="22.391" transform="translate(176.445 58.415)" fill="#fff"/>
    <path id="Path_23932" data-name="Path 23932" d="M298.82,60.416c-12.169,0-22.094,9.661-22.094,21.506s9.925,21.507,22.094,21.507,22.094-9.661,22.094-21.507-9.925-21.506-22.094-21.506Zm0-.884c12.669,0,23,10.058,23,22.39s-10.333,22.391-23,22.391-23-10.058-23-22.391S286.151,59.532,298.82,59.532Z" transform="translate(-99.373 -1.117)" fill="#cb9a51" stroke="#cb9a51" stroke-miterlimit="2.613" stroke-width="2" fill-rule="evenodd"/>
    <path id="Path_23933" data-name="Path 23933" d="M301.485,84.018l-11.556,5.735V85.9l-7.593,7.386h7.139l11.655-5.75,17,13.779H321.3l0-2.906h-2.1Z" transform="translate(-102.441 -12.643)" fill="#6f2f39" fill-rule="evenodd"/>
    <line id="Line_15" data-name="Line 15" x1="0.056" y1="0.11" transform="translate(201.085 76.303)" fill="none" stroke="#1a1818" stroke-miterlimit="2.613" stroke-width="0.216"/>
    <line id="Line_16" data-name="Line 16" y1="0.039" x2="0.078" transform="translate(209.097 83.242)" fill="none" stroke="#1a1818" stroke-miterlimit="2.613" stroke-width="0.216"/>
    <g id="Group_64" data-name="Group 64" transform="translate(179.792 65.785)">
      <path id="Path_23934" data-name="Path 23934" d="M301.58,73.569c-3.393.268-16.476,6.816-19.438,14.137l8.1-8.206c1-.725,7.028-5.034,11.808-6.044Z" transform="translate(-282.142 -73.456)" fill="#1a1818" fill-rule="evenodd"/>
      <g id="Group_63" data-name="Group 63" transform="translate(3.681 11.805)">
        <path id="Path_23935" data-name="Path 23935" d="M289.1,96.745a2.184,2.184,0,0,0,2.9.013A2.179,2.179,0,0,0,289.1,96.745Z" transform="translate(-289.097 -95.968)" fill="#1a1818" fill-rule="evenodd"/>
        <path id="Path_23936" data-name="Path 23936" d="M289.11,96.536a2.251,2.251,0,0,1,2.892,0A1.734,1.734,0,0,0,289.11,96.536Z" transform="translate(-289.103 -95.76)" fill="#fff" fill-rule="evenodd"/>
        <path id="Path_23937" data-name="Path 23937" d="M291.994,97.247a2.252,2.252,0,0,1-2.893,0A1.734,1.734,0,0,0,291.994,97.247Z" transform="translate(-289.099 -96.459)" fill="#fff" fill-rule="evenodd"/>
      </g>
    </g>
    <path id="Path_23938" data-name="Path 23938" d="M310.012,109.5l-20.147,0V107.6l-7.654,3.347,7.653,3.37v-1.9h20.148Z" transform="translate(-102.382 -23.742)" fill="#6f2f39" fill-rule="evenodd"/>
    <path id="Path_23939" data-name="Path 23939" d="M331.236,97.08l-20.147,0V95.173l-7.654,3.347,7.653,3.371v-1.9h20.148Z" transform="translate(-112.373 -17.894)" fill="#6f2f39" fill-rule="evenodd"/>
  </g>
</svg>
